<?xml version="1.0" standalone="no"?>
<!DOCTYPE svg PUBLIC "-//W3C//DTD SVG 20010904//EN"
 "http://www.w3.org/TR/2001/REC-SVG-20010904/DTD/svg10.dtd">
<svg version="1.0" xmlns="http://www.w3.org/2000/svg"
 width="128.000000pt" height="128.000000pt" viewBox="0 0 128.000000 128.000000"
 preserveAspectRatio="xMidYMid meet">
<metadata>
Created by potrace 1.13, written by Peter Selinger 2001-2015
</metadata>
<g transform="translate(0.000000,128.000000) scale(0.100000,-0.100000)"
fill="#ffffff" fill-opacity="0.87" stroke="none">
<path d="M317 1014 c-169 -85 -306 -158 -303 -162 2 -4 144 -77 315 -162 l311
-155 311 155 c171 85 313 158 315 162 5 8 -609 318 -628 317 -7 0 -152 -70
-321 -155z m531 -62 l192 -97 -200 -100 -200 -100 -200 100 -200 100 192 97
c106 53 200 97 208 97 8 0 102 -44 208 -97z"/>
<path d="M57 654 c-26 -14 -46 -28 -43 -32 2 -4 144 -77 315 -162 l311 -155
316 158 c173 86 313 161 310 165 -3 4 -28 19 -56 32 l-51 24 -260 -129 -259
-130 -255 128 c-140 70 -261 127 -268 127 -6 -1 -34 -12 -60 -26z"/>
<path d="M63 432 c-29 -14 -53 -29 -53 -32 0 -3 142 -76 315 -163 l315 -157
315 157 c173 87 315 160 315 163 0 3 -25 18 -55 33 l-55 27 -260 -130 -260
-130 -260 130 c-143 71 -261 130 -262 129 -2 0 -27 -12 -55 -27z"/>
</g>
</svg>
